<?xml version="1.0" encoding="UTF-8"?><svg id="Group_11187" xmlns="http://www.w3.org/2000/svg" viewBox="0 0 141.28 95.96"><defs><style>.cls-1{fill:#00b6fe;}.cls-2{fill:#edfaff;}.cls-3{fill:#fff;}.cls-4{fill:#b6eaff;}.cls-5{fill:#a4e5ff;}.cls-6{fill:#c8efff;}.cls-7{fill:#daf5ff;}.cls-8{fill:#7fdbff;}.cls-9{fill:#24c1ff;}.cls-10{fill:#36c6ff;}.cls-11{fill:#5bd0ff;}</style></defs><g><path class="cls-3" d="M9.21,75.73c-1.19,.01-2.37-.2-3.48-.64-1.03-.41-1.97-1.02-2.76-1.8-.79-.78-1.4-1.72-1.81-2.75-.43-1.12-.65-2.31-.63-3.51-.01-1.18,.22-2.36,.67-3.45,.87-2.08,2.55-3.72,4.66-4.54,1.12-.44,2.32-.66,3.53-.65,.79,0,1.58,.1,2.35,.31,.76,.2,1.48,.51,2.14,.92,.64,.39,1.22,.88,1.71,1.45l-2.49,2.85c-.32-.34-.68-.65-1.07-.92-.38-.26-.79-.47-1.23-.61-1.07-.33-2.21-.28-3.24,.13-1.14,.46-2.04,1.37-2.48,2.52-.25,.65-.37,1.34-.36,2.04,0,.68,.11,1.36,.36,2,.22,.58,.56,1.1,1,1.55,.44,.44,.98,.77,1.57,.98,.66,.23,1.35,.34,2.05,.33,.5,0,.99-.07,1.46-.21,.45-.14,.88-.34,1.28-.59,.38-.24,.73-.52,1.04-.85l1.96,3.11c-.46,.49-1,.9-1.59,1.2-.7,.36-1.44,.64-2.2,.83-.79,.2-1.61,.3-2.43,.3"/><path class="cls-3" d="M22.79,75.72c-1.23,.02-2.45-.27-3.53-.86-1.01-.55-1.85-1.36-2.44-2.35-.61-1.03-.92-2.21-.9-3.4-.02-1.19,.29-2.37,.9-3.4,.59-.98,1.44-1.79,2.44-2.35,2.21-1.15,4.85-1.15,7.06,0,1.01,.55,1.84,1.36,2.43,2.35,.6,1.03,.91,2.21,.89,3.4,.02,1.19-.28,2.37-.89,3.4-.59,.99-1.42,1.8-2.43,2.35-1.08,.59-2.3,.88-3.53,.86m0-3.3c.54,0,1.07-.14,1.53-.43,.45-.29,.81-.7,1.05-1.17,.26-.53,.39-1.11,.36-1.7,.03-.59-.1-1.18-.36-1.71-.24-.48-.6-.89-1.05-1.18-.46-.29-.99-.44-1.53-.43-.55,0-1.08,.14-1.54,.43-.46,.29-.83,.7-1.07,1.18-.26,.53-.38,1.12-.36,1.71-.03,.59,.1,1.17,.36,1.7,.24,.48,.61,.88,1.06,1.17,.46,.29,1,.44,1.54,.43"/><path class="cls-3" d="M32.13,75.49v-12.71h3.64l.12,2.3-.5,.02c.18-.4,.43-.77,.73-1.1,.29-.32,.63-.59,1.01-.8,.37-.21,.76-.38,1.17-.49,.4-.11,.82-.17,1.23-.17,.58,0,1.16,.09,1.7,.29,.52,.19,.98,.51,1.34,.92,.42,.5,.73,1.08,.91,1.71l-.6-.05,.19-.38c.21-.39,.48-.74,.8-1.04,.33-.31,.69-.58,1.09-.79,.39-.21,.81-.38,1.25-.49,.41-.11,.82-.16,1.25-.17,.88-.03,1.74,.17,2.51,.59,.68,.41,1.22,1.02,1.52,1.76,.37,.9,.54,1.87,.51,2.85v7.76h-3.85v-7.45c.01-.43-.06-.86-.22-1.27-.12-.31-.35-.58-.63-.75-.32-.18-.68-.26-1.04-.25-.32,0-.63,.05-.92,.17-.27,.1-.51,.26-.72,.46-.2,.19-.36,.42-.47,.67-.11,.27-.17,.57-.17,.86v7.57h-3.85v-7.47c.01-.42-.06-.83-.21-1.22-.13-.32-.36-.59-.65-.77-.3-.18-.65-.27-1-.26-.32,0-.63,.05-.92,.17-.27,.1-.51,.26-.72,.46-.41,.39-.64,.94-.63,1.51v7.59h-3.85Z"/><path class="cls-3" d="M55.18,80.75v-17.98h3.64l.14,2.85-.72-.21c.12-.55,.41-1.05,.81-1.44,.47-.46,1.03-.81,1.64-1.04,.67-.27,1.38-.4,2.1-.4,1.03-.02,2.04,.28,2.9,.85,.86,.58,1.55,1.38,2,2.32,.5,1.07,.75,2.23,.73,3.41,.02,1.17-.23,2.34-.73,3.4-.45,.95-1.14,1.75-2.01,2.33-.87,.57-1.89,.87-2.93,.85-.71,0-1.41-.14-2.06-.41-.62-.25-1.18-.62-1.65-1.1-.42-.42-.73-.94-.89-1.51l.89-.33v8.4h-3.86Zm6.63-8.28c.53,.01,1.06-.13,1.51-.42,.43-.29,.78-.69,1-1.16,.25-.56,.38-1.16,.36-1.77,.01-.61-.11-1.21-.36-1.76-.22-.48-.56-.88-.99-1.17-.45-.29-.98-.43-1.52-.42-.54-.01-1.07,.13-1.53,.41-.44,.28-.79,.69-1.01,1.17-.25,.56-.37,1.16-.36,1.77-.02,.61,.11,1.22,.36,1.77,.22,.47,.57,.88,1.01,1.16,.46,.29,.99,.43,1.53,.42"/><path class="cls-3" d="M75.65,75.7c-1.02,.02-2.02-.28-2.86-.85-.86-.59-1.55-1.4-2-2.35-.51-1.06-.76-2.22-.74-3.39-.02-1.18,.23-2.36,.74-3.42,.46-.95,1.16-1.75,2.04-2.33,.87-.57,1.9-.87,2.95-.85,.57,0,1.13,.08,1.66,.26,.48,.16,.93,.41,1.33,.73,.38,.31,.71,.67,.98,1.08,.27,.4,.47,.84,.6,1.31l-.79-.1v-3.01h3.81v12.71h-3.88v-3.07l.86-.02c-.13,.46-.34,.88-.62,1.27-.29,.41-.65,.76-1.05,1.05-.42,.31-.89,.55-1.39,.72-.52,.18-1.07,.27-1.63,.26m1.05-3.23c.54,.01,1.07-.13,1.53-.41,.44-.28,.79-.69,1.01-1.16,.25-.56,.37-1.17,.36-1.78,.01-.61-.11-1.22-.36-1.78-.22-.48-.57-.88-1.01-1.17-.46-.29-.99-.43-1.53-.42-.53-.01-1.05,.13-1.5,.42-.43,.29-.78,.7-.99,1.17-.25,.56-.37,1.17-.36,1.78-.02,.61,.11,1.22,.36,1.78,.21,.47,.56,.88,.99,1.16,.45,.28,.97,.42,1.5,.41"/><path class="cls-3" d="M85.74,75.49v-12.71h3.64l.12,2.59-.76,.29c.18-.59,.51-1.13,.95-1.57,.47-.48,1.03-.87,1.64-1.14,.63-.28,1.32-.43,2.01-.43,.84-.03,1.68,.17,2.42,.59,.67,.41,1.19,1.02,1.48,1.75,.36,.9,.53,1.87,.5,2.84v7.81h-3.85v-7.49c.01-.43-.06-.86-.21-1.27-.13-.32-.36-.58-.66-.75-.33-.18-.71-.26-1.09-.23-.32,0-.63,.05-.93,.16-.28,.1-.53,.25-.74,.45-.2,.2-.37,.43-.49,.68-.12,.26-.18,.55-.18,.84v7.61h-3.83Z"/><path class="cls-3" d="M101.42,80.99l2.9-6.82,.05,1.96-6.13-13.36h4.33l2.68,6.39c.14,.32,.28,.66,.41,1.03,.12,.34,.22,.7,.29,1.05l-.53,.31c.1-.24,.2-.54,.32-.9,.12-.36,.25-.75,.4-1.16l2.35-6.73h4.35l-5.41,12.71-2.2,5.51h-3.81Z"/><path class="cls-3" d="M120.41,75.72c-1.23,.02-2.45-.27-3.53-.86-1.01-.55-1.85-1.36-2.44-2.35-.61-1.03-.92-2.21-.9-3.4-.02-1.19,.29-2.37,.9-3.4,.59-.98,1.44-1.79,2.44-2.35,2.21-1.15,4.85-1.15,7.06,0,1.01,.55,1.84,1.36,2.43,2.35,.6,1.03,.91,2.21,.89,3.4,.02,1.19-.28,2.37-.89,3.4-.59,.99-1.42,1.8-2.43,2.35-1.08,.59-2.3,.88-3.53,.86m0-3.3c.54,0,1.07-.14,1.53-.43,.45-.29,.81-.7,1.05-1.17,.26-.53,.39-1.11,.36-1.7,.03-.59-.1-1.18-.36-1.71-.24-.48-.6-.89-1.05-1.18-.46-.29-.99-.44-1.53-.43-.55,0-1.08,.14-1.54,.43-.46,.29-.83,.7-1.07,1.18-.26,.53-.38,1.12-.36,1.71-.03,.59,.1,1.17,.36,1.7,.24,.48,.61,.89,1.07,1.17,.46,.29,1,.44,1.54,.43"/><path class="cls-3" d="M128.77,75.49v-12.71h3.64l.12,2.59-.76,.29c.18-.59,.51-1.13,.95-1.57,.47-.48,1.03-.87,1.64-1.14,.63-.29,1.32-.43,2.01-.43,.84-.03,1.68,.17,2.42,.59,.67,.41,1.19,1.02,1.48,1.75,.36,.9,.53,1.87,.5,2.84v7.81h-3.85v-7.49c.01-.43-.06-.86-.21-1.27-.13-.32-.36-.58-.66-.75-.33-.18-.71-.26-1.09-.23-.32,0-.63,.05-.93,.16-.28,.1-.53,.25-.74,.45-.2,.2-.37,.43-.49,.68-.12,.26-.18,.55-.18,.84v7.61h-3.83Z"/><path class="cls-3" d="M30.82,95.44l-3.43-8.87h1.12l2.21,5.78c.1,.26,.19,.49,.27,.7s.15,.4,.21,.58,.12,.36,.18,.54,.12,.37,.19,.58h-.33c.08-.27,.17-.54,.25-.79,.08-.25,.17-.5,.25-.75,.09-.26,.2-.56,.33-.91l2.19-5.73h1.11l-3.54,8.87h-1.01Z"/><path class="cls-3" d="M40.03,95.44v-8.87h5.37v.96h-4.39v6.95h4.36v.96h-5.35Zm.46-5.05h4.21v.96h-4.21v-.96Z"/><path class="cls-3" d="M50.67,95.44v-8.87h.9l5.81,7.68-.18,.23c-.03-.2-.05-.4-.06-.61-.01-.27-.03-.58-.04-.92s-.02-.7-.03-1.07-.01-.74-.02-1.09,0-.67,0-.96v-3.26h.99v8.87h-.93l-5.78-7.58,.15-.27c.03,.34,.05,.67,.07,1s.04,.65,.05,.95,.02,.58,.03,.84,.01,.47,.02,.65,0,.3,0,.38v4.03h-.99Z"/><path class="cls-3" d="M65.29,95.44v-7.91h-2.54v-.96h6.16v.96h-2.64v7.91h-.99Z"/><path class="cls-3" d="M77.04,95.52c-.62,.01-1.24-.14-1.79-.45-.52-.29-.95-.72-1.24-1.24-.3-.55-.46-1.17-.45-1.79v-5.48h.99v5.36c0,.47,.11,.93,.33,1.34,.21,.39,.52,.71,.89,.94,.38,.23,.82,.35,1.26,.34,.46,0,.91-.11,1.31-.34,.38-.23,.69-.55,.91-.94,.22-.41,.34-.88,.33-1.34v-5.36h.95v5.48c.01,.63-.15,1.25-.45,1.79-.29,.52-.72,.95-1.24,1.24-.55,.31-1.17,.46-1.81,.45"/><path class="cls-3" d="M86.14,95.44v-8.87h3.47c.49,0,.97,.12,1.4,.36,.86,.49,1.38,1.4,1.36,2.39,0,.47-.12,.93-.35,1.33-.23,.39-.57,.72-.96,.94-.42,.24-.89,.36-1.37,.35h-2.56v3.5h-.99Zm.99-4.46h2.65c.29,0,.57-.07,.82-.22,.24-.14,.43-.35,.56-.59,.28-.56,.27-1.23-.04-1.78-.16-.27-.39-.49-.66-.63-.3-.16-.63-.23-.97-.23h-2.36v3.45Zm4.42,4.46l-2.23-3.9,.95-.33,2.46,4.23h-1.18Z"/><path class="cls-3" d="M97.55,95.44v-8.87h5.37v.96h-4.39v6.95h4.36v.96h-5.35Zm.46-5.05h4.21v.96h-4.21v-.96Z"/><path class="cls-3" d="M110.77,95.56c-.43,0-.86-.06-1.27-.19-.39-.13-.76-.32-1.09-.57-.34-.26-.64-.58-.88-.94l.68-.76c.31,.48,.73,.89,1.22,1.19,.43,.23,.92,.35,1.41,.34,.36,0,.71-.06,1.04-.19,.29-.11,.54-.29,.74-.53,.18-.22,.27-.5,.27-.78,0-.18-.03-.35-.1-.52-.06-.15-.16-.29-.29-.4-.14-.13-.3-.24-.47-.32-.21-.1-.42-.19-.64-.25-.24-.08-.51-.15-.81-.23-.39-.09-.77-.21-1.13-.36-.3-.12-.58-.3-.82-.51-.22-.19-.39-.43-.51-.7-.12-.3-.18-.62-.17-.94,0-.33,.07-.66,.22-.96,.15-.3,.36-.56,.62-.77,.28-.22,.59-.39,.93-.5,.37-.12,.75-.18,1.14-.18,.42,0,.83,.06,1.22,.19,.35,.12,.68,.3,.96,.54,.28,.24,.53,.53,.72,.85l-.7,.69c-.17-.27-.37-.51-.6-.72-.22-.2-.46-.35-.74-.46-.28-.11-.58-.16-.88-.16-.34,0-.67,.06-.98,.19-.27,.11-.49,.29-.66,.53-.16,.22-.24,.49-.24,.77,0,.19,.04,.39,.11,.56,.08,.17,.21,.32,.36,.43,.2,.14,.42,.25,.65,.33,.31,.11,.63,.2,.96,.27,.4,.09,.8,.21,1.18,.37,.32,.13,.63,.3,.9,.51,.24,.19,.43,.42,.57,.69,.14,.28,.2,.59,.2,.9,.01,.49-.13,.97-.39,1.38-.27,.4-.66,.72-1.1,.92-.52,.23-1.08,.34-1.64,.33"/></g><g><path class="cls-8" d="M55.94,28.3l-8.07,1.66c.76,3.68,2.35,7.13,4.66,10.1l6.53-5.05c-1.54-1.97-2.6-4.26-3.11-6.71"/><path class="cls-5" d="M59.04,35.01l-6.53,5.05c2.3,2.97,5.25,5.37,8.62,7.03l3.64-7.42c-2.24-1.1-4.2-2.7-5.73-4.67"/><path class="cls-11" d="M55.6,25c0-1.38,.19-2.76,.54-4.09l-8-2.07c-.93,3.64-1.03,7.44-.28,11.12l8.08-1.66c-.22-1.09-.33-2.19-.33-3.3"/><path class="cls-2" d="M87.8,29.09c-.62,2.42-1.79,4.66-3.42,6.56l6.26,5.37c2.45-2.85,4.22-6.22,5.16-9.86l-8-2.07Z"/><path class="cls-7" d="M78.43,40.04l3.25,7.58c3.45-1.49,6.51-3.75,8.96-6.6l-6.26-5.37c-1.62,1.9-3.66,3.4-5.95,4.39"/><path class="cls-6" d="M71.97,41.37v8.24c3.34,0,6.65-.68,9.72-2l-3.26-7.58c-2.04,.88-4.24,1.33-6.46,1.33"/><path class="cls-4" d="M64.77,39.68l-3.64,7.42c3.37,1.66,7.08,2.52,10.84,2.51v-8.24c-2.5,0-4.96-.58-7.2-1.69"/><path class="cls-1" d="M88.01,21.7l8.08-1.66c-.76-3.68-2.35-7.13-4.65-10.1l-6.53,5.05c1.54,1.97,2.6,4.27,3.11,6.71"/><path class="cls-10" d="M59.56,14.35l-6.26-5.37c-2.45,2.85-4.22,6.22-5.16,9.86l8,2.07c.62-2.42,1.79-4.66,3.42-6.56"/><path class="cls-1" d="M91.43,9.94l-6.53,5.05,6.53-5.05c-2.3-2.97-5.25-5.37-8.62-7.03l-3.64,7.42c2.24,1.1,4.2,2.7,5.73,4.67"/><path class="cls-1" d="M79.17,10.32c-2.24-1.11-4.7-1.68-7.2-1.69V.39c3.76,0,7.47,.86,10.84,2.51l-3.64,7.42,3.64-7.42-3.64,7.42Z"/><path class="cls-9" d="M65.51,9.96l-3.25-7.57c-3.45,1.49-6.51,3.75-8.96,6.6l6.26,5.36c1.62-1.9,3.66-3.4,5.95-4.39"/><path class="cls-1" d="M71.97,8.63V.39c-3.34,0-6.64,.68-9.71,2l3.25,7.57c2.04-.88,4.24-1.33,6.46-1.33"/><rect class="cls-1" x="84.04" y="11.97" width="8.25" height="1" transform="translate(10.82 56.58) rotate(-37.74)"/><rect class="cls-1" x="76.86" y="6.11" width="8.26" height="1" transform="translate(39.37 76.41) rotate(-63.86)"/><rect class="cls-1" x="71.47" y=".39" width="1" height="8.24"/><polygon class="cls-1" points="65.46 9.98 62.21 2.41 62.31 2.37 65.56 9.94 65.46 9.98"/><polygon class="cls-9" points="59.53 14.39 53.27 9.03 53.33 8.95 59.59 14.31 59.53 14.39"/><polygon class="cls-11" points="56.13 20.96 48.13 18.89 48.15 18.79 56.15 20.86 56.13 20.96"/><polygon class="cls-8" points="47.87 30.01 47.85 29.91 55.93 28.25 55.95 28.35 47.87 30.01"/><polygon class="cls-5" points="52.55 40.1 52.48 40.02 59.01 34.97 59.07 35.05 52.55 40.1"/><polygon class="cls-4" points="61.18 47.12 61.09 47.08 64.73 39.66 64.82 39.71 61.18 47.12"/><rect class="cls-6" x="71.92" y="41.37" width=".1" height="8.24"/><polygon class="cls-7" points="81.64 47.63 78.39 40.06 78.48 40.02 81.73 47.59 81.64 47.63"/><rect class="cls-2" x="87.47" y="34.21" width=".1" height="8.25" transform="translate(1.44 79.8) rotate(-49.38)"/></g></svg>