<svg width="111" height="29" viewBox="0 0 111 29" fill="none" xmlns="http://www.w3.org/2000/svg">
<path d="M35.149 28.9059C32.8332 28.9059 30.8369 28.44 29.1601 27.5084C27.5248 26.5923 26.1927 25.2185 25.3274 23.5558C24.449 21.8257 24.0098 19.7762 24.0098 17.4074C24.0098 15.0118 24.449 12.9622 25.3274 11.2588C26.1927 9.59615 27.5249 8.22237 29.1601 7.30621C30.837 6.37458 32.8332 5.90882 35.149 5.90894C38.6091 5.90894 41.3239 6.93365 43.2936 8.98305C45.2633 11.006 46.2481 13.8141 46.2482 17.4074C46.2482 19.7763 45.7957 21.8258 44.8908 23.5558C44.041 25.2297 42.7049 26.6076 41.0578 27.5084C39.4076 28.44 37.4379 28.9059 35.149 28.9059ZM35.149 24.9931C37.0919 24.9931 38.6224 24.3144 39.7404 22.957C40.8848 21.5996 41.4571 19.7497 41.4571 17.4074C41.4571 15.0385 40.8848 13.1886 39.7404 11.8578C38.6225 10.5003 37.092 9.82159 35.149 9.82154C33.1528 9.82154 31.5957 10.5003 30.4777 11.8578C29.3598 13.1885 28.8009 15.0384 28.8009 17.4074C28.8009 19.7496 29.3598 21.5994 30.4777 22.957C31.5956 24.3144 33.1527 24.9931 35.149 24.9931Z" fill="#F8FCFD"/>
<path d="M15.3713 28.4267V14.6525C15.3713 13.2152 14.972 12.0707 14.1735 11.219C13.4016 10.3672 12.3901 9.94129 11.1391 9.94124C9.70183 9.94124 8.39761 10.4603 7.22647 11.4984C6.29572 12.3209 5.4706 13.5571 4.75109 15.2069V28.4267H0V6.38804H4.55147L4.69262 9.66275C5.38779 8.69613 6.20579 7.92395 7.14662 7.34623C8.59769 6.40749 10.2892 5.90834 12.0175 5.90894C13.6944 5.90894 15.1317 6.26824 16.3294 6.98682C17.54 7.66428 18.515 8.69497 19.1242 9.94124C19.7895 11.1923 20.1223 12.6695 20.1224 14.373V28.4267H15.3713Z" fill="#F8FCFD"/>
<path d="M90.3125 0.405518H95.0634V9.59682C95.7459 8.65802 96.5444 7.90784 97.459 7.34627C98.9101 6.40752 100.602 5.90837 102.33 5.90898C104.007 5.90898 105.444 6.26828 106.642 6.98687C107.852 7.66432 108.827 8.69501 109.437 9.94128C110.102 11.219 110.435 12.7096 110.435 14.413V28.4268H105.684V14.6924C105.684 13.2551 105.284 12.1106 104.486 11.2589C103.714 10.3805 102.703 9.94133 101.452 9.94128C100.014 9.94128 98.71 10.4603 97.5389 11.4984C96.6081 12.321 95.7829 13.5571 95.0634 15.2068V28.4268H90.3125V0.405518Z" fill="#F8FCFD"/>
<path d="M79.9856 28.4268C78.5749 28.4268 77.3638 28.134 76.3524 27.5485C75.3505 26.9732 74.544 26.111 74.0367 25.073C73.4837 23.8865 73.2105 22.5888 73.2382 21.2801V2.39548L78.0292 0V21.2801C78.018 21.8776 78.1127 22.4724 78.3087 23.0369C78.5014 23.5498 78.8888 23.9659 79.3866 24.1947C79.9456 24.4342 80.7441 24.554 81.7821 24.554H86.4336V28.4268H79.9856Z" fill="#F8FCFD"/>
<path d="M50.127 28.4269V6.38821H54.6385L54.8781 11.0595V28.4269H50.127Z" fill="#F8FCFD"/>
<path d="M63.219 13.6147C63.219 12.5233 62.8863 11.645 62.2209 10.9796C61.2706 9.95006 59.601 9.72838 58.3155 10.1834C54.3852 11.5746 54.9012 17.7507 54.8781 21.0049C54.8781 21.0049 52.813 19.3673 52.5025 16.6621C52.3876 15.661 52.4946 13.1216 52.9267 12.2111C53.1468 11.7474 53.3728 11.2863 53.6134 10.8329C54.6937 8.79615 56.5042 6.91476 58.7716 6.26389C59.8965 5.9488 61.0795 5.90052 62.2264 6.1229C63.3732 6.34528 64.4524 6.83219 65.3781 7.5449C67.2371 8.99354 67.9701 11.3267 67.9701 13.6147" fill="#F8FCFD"/>
<path d="M86.4356 5.90894H70.3457V9.78154H86.4356V5.90894Z" fill="#F8FCFD"/>
</svg>
